# Blender v2.78 (sub 0) OBJ File: ''
# www.blender.org
mtllib arrow.mtl
o Arrow_Cube.002
v -1.065211 -0.307453 -0.567807
v -0.378537 2.599667 -0.171833
v -0.015339 1.338441 -0.080155
v -0.014426 2.835438 -0.069964
v -0.117612 1.338441 0.096988
v -0.108260 2.835438 0.092561
v 1.052100 -0.292110 -0.567806
v 0.366995 2.609726 -0.171833
v 0.105802 1.349404 0.096989
v 0.096718 2.845496 0.092562
v 0.003528 1.349404 -0.080154
v 0.002884 2.845496 -0.069964
v 0.000279 -0.261471 1.265621
v -0.001291 2.629812 0.473674
v -0.103296 1.371297 0.113173
v -0.095125 2.865583 0.107410
v 0.101251 1.371297 0.113173
v 0.092543 2.865583 0.107410
v -0.000555 7.677337 -0.418542
v -0.000555 9.896883 0.053398
v 0.408157 7.677337 0.289368
v -0.000555 8.787111 -0.137569
v -0.409266 7.677337 0.289368
v 0.084211 7.858749 0.004459
v -0.000555 7.858749 0.151276
v -0.085320 7.858749 0.004459
v 0.164828 8.787111 0.148882
v -0.165937 8.787111 0.148882
v -0.000555 1.344851 -0.118319
v -0.000555 8.067098 -0.072454
v 0.148157 1.344851 0.139257
v 0.108436 8.067098 0.116324
v -0.149266 1.344851 0.139257
v -0.109545 8.067098 0.116324
vt 0.7081 0.6991
vt 0.5907 0.2327
vt 0.6044 0.0596
vt 0.7002 0.0826
vt 0.6117 0.0000
vt 0.7081 0.0176
vt 0.4726 0.6840
vt 0.3766 0.7038
vt 0.3539 0.4710
vt 0.4726 0.0000
vt 0.9323 0.0616
vt 0.9662 0.0000
vt 0.9662 0.6774
vt 0.8584 0.9329
vt 0.8298 0.8749
vt 0.8584 0.6990
vt 0.7692 0.6990
vt 0.7689 0.9128
vt 0.7131 0.9337
vt 0.7081 0.8282
vt 0.5943 0.7037
vt 0.6916 0.7090
vt 0.6916 0.8293
vt 0.5943 0.8347
vt 0.8298 0.8282
vt 0.8248 0.9337
vt 0.5943 0.8907
vt 0.4726 0.8907
vt 0.5332 0.7037
vt 0.4484 0.7038
vt 0.4484 0.8240
vt 0.3929 0.7639
vt 0.5907 0.7037
vt 0.4726 0.2328
vt 0.4949 0.0000
vt 0.5907 0.0196
vt 0.8251 0.6816
vt 0.7288 0.6990
vt 0.7215 0.6394
vt 0.8172 0.6166
vt 0.7081 0.4662
vt 0.8251 0.0000
vt 1.0000 0.6775
vt 0.9662 0.6158
vt 1.0000 0.0000
vt 0.1478 0.5343
vt 0.1763 0.4762
vt 0.1763 0.7101
vt 0.1478 1.0000
vt 0.0737 0.8441
vt 0.1344 0.7381
vt 0.3046 0.9971
vt 0.2424 0.8375
vt 0.3078 0.7894
vt 0.8892 0.2076
vt 0.8892 0.3162
vt 0.8251 0.2619
vt 0.3298 0.7363
vt 0.2526 0.7320
vt 0.3130 0.6809
vt 0.9323 0.0000
vt 0.9115 0.2619
vt 0.9323 0.5238
vt 0.2526 0.6258
vt 0.3298 0.4740
vt 0.1770 0.7277
vt 0.0737 0.6321
vt 0.1478 0.4762
vt 0.0000 0.7381
vt 0.1770 0.4740
vt 0.2006 0.0000
vt 0.3303 0.0000
vt 0.3539 0.4740
vt 0.1770 0.0049
vt 0.1533 0.4762
vt 0.0885 0.4726
vt 0.0885 0.0000
vt 0.1764 0.7101
vt 0.1764 0.8498
vt 0.1478 0.7799
vt 0.0236 0.4762
vt 0.0000 0.0049
vt 0.3929 0.7038
vt 0.3929 0.8944
vt 0.3539 0.7991
vn -0.5872 -0.7350 -0.3389
vn -0.7754 0.4452 -0.4477
vn 0.6443 0.6972 -0.3142
vn 0.9353 -0.2249 -0.2730
vn 0.0502 0.6972 0.7151
vn 0.2314 -0.2248 0.9465
vn 0.5871 -0.7350 -0.3391
vn 0.7755 0.4451 -0.4477
vn -0.0500 0.6972 0.7150
vn -0.2313 -0.2251 0.9465
vn -0.6443 0.6972 -0.3141
vn -0.9354 -0.2250 -0.2728
vn 0.0003 -0.7341 0.6790
vn 0.0000 0.4456 0.8952
vn -0.5943 0.6972 -0.4008
vn -0.7038 -0.2264 -0.6733
vn 0.5940 0.6972 -0.4012
vn 0.7036 -0.2260 -0.6737
vn 0.0000 -0.6597 -0.7515
vn 0.0000 0.0986 -0.9951
vn 0.5976 -0.7238 -0.3450
vn 0.6508 -0.6597 0.3758
vn 0.8618 0.0986 0.4975
vn 0.0000 -0.7238 0.6900
vn -0.5976 -0.7238 -0.3450
vn -0.6508 -0.6597 0.3758
vn -0.8618 0.0986 0.4975
vn 0.0000 1.0000 0.0000
vn 0.0000 -0.5522 -0.8337
vn 0.0000 0.5572 -0.8304
vn 0.7191 0.5572 0.4152
vn 0.7220 -0.5522 0.4168
vn -0.7191 0.5572 0.4152
vn -0.7220 -0.5522 0.4168
usemtl Material.001
s 1
f 1/1/1 2/2/2 4/3/3 3/4/4
f 3/4/4 4/3/3 6/5/5 5/6/6
f 5/7/6 6/8/5 2/9/2 1/10/1
f 3/11/4 5/12/6 1/13/1
f 6/14/5 4/15/3 2/16/2
f 7/17/7 8/18/8 10/19/9 9/20/10
f 9/21/10 10/22/9 12/23/11 11/24/12
f 11/25/12 12/26/11 8/18/8 7/17/7
f 9/27/10 11/28/12 7/29/7
f 12/30/11 10/31/9 8/32/8
f 13/33/13 14/34/14 16/35/15 15/36/16
f 15/37/16 16/38/15 18/39/17 17/40/18
f 17/40/18 18/39/17 14/41/14 13/42/13
f 15/43/16 17/44/18 13/45/13
f 18/46/17 16/47/15 14/48/14
f 19/49/19 22/50/20 24/51/21
f 21/52/22 27/53/23 25/54/24
f 26/55/25 25/56/24 23/57/26
f 23/58/26 28/59/27 26/60/25
f 19/61/19 24/62/21 26/55/25
f 26/55/25 24/62/21 25/56/24
f 24/62/21 21/63/22 25/56/24
f 26/60/25 22/64/20 19/65/19
f 26/60/25 28/59/27 22/64/20
f 28/59/27 20/66/28 22/64/20
f 25/54/24 28/59/27 23/58/26
f 25/54/24 27/53/23 28/59/27
f 27/53/23 20/66/28 28/59/27
f 24/51/21 27/67/23 21/68/22
f 24/51/21 22/50/20 27/67/23
f 22/50/20 20/69/28 27/67/23
f 29/70/29 30/71/30 32/72/31 31/73/32
f 31/74/32 32/75/31 34/76/33 33/77/34
f 32/78/31 30/79/30 34/80/33
f 33/77/34 34/76/33 30/81/30 29/82/29
f 29/83/29 31/84/32 33/85/34
