# Blender v2.77 (sub 0) OBJ File: ''
# www.blender.org
mtllib WaterFall.mtl
o WaterFall
v -0.060885 0.110573 -0.406773
v -0.060885 0.188375 -0.441412
v -0.060885 0.271679 -0.459120
v -0.060885 0.356844 -0.459120
v -0.060885 0.440148 -0.441412
v -0.060885 0.517950 -0.406773
v -0.060885 0.586851 -0.356714
v -0.060885 0.643837 -0.293424
v -0.060885 0.686420 -0.219669
v -0.060885 0.712737 -0.138672
v -0.060885 0.721639 -0.053973
v -0.060885 0.712737 0.030725
v -0.060885 0.686419 0.111722
v -0.060885 0.643837 0.185477
v -0.060885 0.586851 0.248767
v -0.060885 0.517950 0.298826
v -0.060885 0.440148 0.333466
v -0.060885 0.356844 0.351173
v -0.060885 0.271679 0.362006
v -0.060885 0.188375 0.367842
v -0.190826 0.110573 -0.406773
v -0.190826 0.188375 -0.441412
v -0.190826 0.271679 -0.459120
v -0.190826 0.356844 -0.459120
v -0.190826 0.440148 -0.441412
v -0.190826 0.517950 -0.406773
v -0.190826 0.586851 -0.356714
v -0.190826 0.643837 -0.293424
v -0.190826 0.686420 -0.219669
v -0.190826 0.712737 -0.138672
v -0.190826 0.721639 -0.053973
v -0.190826 0.712737 0.030725
v -0.190826 0.686419 0.111722
v -0.190826 0.643837 0.185477
v -0.190826 0.586851 0.248767
v -0.190826 0.517950 0.298826
v -0.190826 0.440148 0.333466
v -0.190826 0.356844 0.351173
v -0.190826 0.271679 0.362006
v -0.190826 0.188375 0.367842
v -0.062967 0.092592 0.370016
v -0.192909 0.092592 0.370016
v -0.066144 -0.078371 0.373458
v -0.196085 -0.078371 0.373458
vt 0.9417 0.0164
vt 0.9937 0.0164
vt 0.9937 0.9857
vt 0.9417 0.9857
vt 0.8898 0.0164
vt 0.8898 0.9857
vt 0.8378 0.0164
vt 0.8378 0.9857
vt 0.7858 0.0164
vt 0.7858 0.9857
vt 0.7338 0.0164
vt 0.7338 0.9857
vt 0.6819 0.0164
vt 0.6819 0.9857
vt 0.6299 0.0164
vt 0.6299 0.9857
vt 0.5777 0.0164
vt 0.5777 0.9857
vt 0.5258 0.0164
vt 0.5258 0.9857
vt 0.4738 0.0164
vt 0.4738 0.9857
vt 0.4218 0.0164
vt 0.4218 0.9857
vt 0.3697 0.0164
vt 0.3697 0.9857
vt 0.3177 0.0164
vt 0.3177 0.9857
vt 0.2657 0.0164
vt 0.2657 0.9857
vt 0.2137 0.0164
vt 0.2137 0.9857
vt 0.1618 0.0164
vt 0.1618 0.9857
vt 0.1098 0.0164
vt 0.1098 0.9857
vt 0.0577 0.0164
vt 0.0577 0.9857
vt 0.0057 0.0164
vt 0.0057 0.9857
vt 0.0057 0.9857
vt 0.0057 0.0164
vt 0.0057 0.9857
vt 0.0057 0.0164
vn 0.0000 -0.3090 -0.9510
vn 0.0000 -0.4067 -0.9135
vn 0.0000 -0.1045 -0.9945
vn 0.0000 0.1045 -0.9945
vn 0.0000 0.3090 -0.9510
vn 0.0000 0.5000 -0.8660
vn 0.0000 0.6691 -0.7431
vn 0.0000 0.8090 -0.5878
vn 0.0000 0.9135 -0.4067
vn 0.0000 0.9781 -0.2079
vn 0.0000 1.0000 0.0000
vn 0.0000 0.9781 0.2079
vn 0.0000 0.9135 0.4067
vn 0.0000 0.8090 0.5878
vn 0.0000 0.6691 0.7431
vn 0.0000 0.5000 0.8660
vn 0.0000 0.3090 0.9510
vn 0.0000 0.1672 0.9859
vn 0.0000 0.0981 0.9952
vn 0.0000 0.0464 0.9989
vn 0.0000 0.0461 0.9989
vn 0.0000 0.0214 0.9998
vn 0.0000 0.0201 0.9998
usemtl OctDiffuse_1
s 1
f 2/1/1 1/2/2 21/3/2 22/4/1
f 3/5/3 2/1/1 22/4/1 23/6/3
f 4/7/4 3/5/3 23/6/3 24/8/4
f 5/9/5 4/7/4 24/8/4 25/10/5
f 6/11/6 5/9/5 25/10/5 26/12/6
f 7/13/7 6/11/6 26/12/6 27/14/7
f 8/15/8 7/13/7 27/14/7 28/16/8
f 9/17/9 8/15/8 28/16/8 29/18/9
f 10/19/10 9/17/9 29/18/9 30/20/10
f 11/21/11 10/19/10 30/20/10 31/22/11
f 12/23/12 11/21/11 31/22/11 32/24/12
f 13/25/13 12/23/12 32/24/12 33/26/13
f 14/27/14 13/25/13 33/26/13 34/28/14
f 15/29/15 14/27/14 34/28/14 35/30/15
f 16/31/16 15/29/15 35/30/15 36/32/16
f 17/33/17 16/31/16 36/32/16 37/34/17
f 18/35/18 17/33/17 37/34/17 38/36/18
f 19/37/19 18/35/18 38/36/18 39/38/19
f 20/39/20 19/37/19 39/38/19 40/40/21
f 20/39/20 40/40/21 42/41/22 41/42/22
f 41/42/22 42/41/22 44/43/23 43/44/23
